<?xml version="1.0" standalone="no"?>
<!DOCTYPE svg PUBLIC "-//W3C//DTD SVG 20010904//EN"
 "http://www.w3.org/TR/2001/REC-SVG-20010904/DTD/svg10.dtd">
<svg version="1.0" xmlns="http://www.w3.org/2000/svg"
 width="520.000000pt" height="520.000000pt" viewBox="0 0 520.000000 520.000000"
 preserveAspectRatio="xMidYMid meet">
<metadata>
Created by potrace 1.14, written by Peter Selinger 2001-2017
</metadata>
<g transform="translate(0.000000,520.000000) scale(0.100000,-0.100000)"
fill="#000000" stroke="none">
<path d="M1350 4967 c-3 -3 -20 -7 -38 -10 -124 -20 -260 -147 -301 -284 -37
-123 -13 -302 54 -389 84 -110 225 -177 351 -167 93 7 203 61 267 132 133 148
135 436 2 589 -28 33 -117 90 -167 108 -44 16 -159 30 -168 21z"/>
<path d="M3695 4955 c-65 -19 -125 -54 -176 -102 -82 -77 -117 -169 -117 -308
0 -167 55 -279 178 -362 152 -102 341 -84 492 46 130 112 158 383 57 543 -95
149 -283 229 -434 183z"/>
<path d="M1161 3984 c-192 -33 -277 -111 -308 -284 -9 -54 -9 -2945 0 -3029
15 -134 66 -228 153 -281 94 -59 237 -61 340 -7 45 24 102 85 123 131 46 105
45 77 46 1428 0 702 3 1274 7 1270 3 -4 18 -41 31 -82 24 -70 51 -146 194
-550 30 -85 72 -204 93 -265 21 -60 71 -202 110 -315 40 -113 116 -334 170
-491 54 -158 111 -309 126 -338 73 -134 202 -209 363 -209 128 0 218 35 292
115 60 65 84 106 113 194 13 41 58 182 101 314 42 132 87 272 100 310 13 39
51 158 85 265 83 263 158 496 175 545 33 96 145 453 145 462 0 5 6 17 13 26
10 14 12 -234 13 -1250 0 -698 4 -1288 8 -1313 12 -70 53 -153 99 -198 143
-140 402 -108 502 62 60 103 58 31 58 1626 -1 800 -2 1487 -4 1525 -8 206
-106 309 -325 343 -31 5 -165 8 -297 7 -188 -2 -255 -6 -301 -19 -86 -24 -148
-73 -180 -141 -12 -26 -203 -544 -210 -570 -2 -5 -6 -17 -9 -25 -7 -18 -59
-165 -94 -265 -13 -38 -30 -86 -38 -105 -8 -19 -64 -177 -126 -350 -61 -173
-114 -321 -116 -327 -7 -18 -20 -7 -27 22 -4 14 -35 99 -70 188 -36 89 -173
441 -306 782 -133 341 -250 636 -260 655 -34 67 -101 117 -180 136 -19 4 -42
9 -50 12 -41 11 -491 8 -559 -4z"/>
</g>
</svg>
